<svg width="24" height="24" viewBox="0 0 24 24" xmlns="http://www.w3.org/2000/svg"><path d="M21.333 13.333V20c0 .733-.6 1.333-1.333 1.333H4c-.733 0-1.333-.6-1.333-1.333v-6.667c0-.733-.6-1.333-1.334-1.333C.6 12 0 12.6 0 13.333v8C0 22.8 1.2 24 2.667 24h18.666C22.8 24 24 22.8 24 21.333v-8C24 12.6 23.4 12 22.667 12c-.734 0-1.334.6-1.334 1.333zm-8-.44l2.507-2.506c.52-.52 1.36-.52 1.88 0 .52.52.52 1.36 0 1.88l-4.787 4.786c-.52.52-1.36.52-1.88 0l-4.786-4.786c-.52-.52-.52-1.36 0-1.88.52-.52 1.36-.52 1.88 0l2.52 2.506V1.333C10.667.6 11.267 0 12 0s1.333.6 1.333 1.333v11.56z" fill="#FFF" fill-rule="nonzero"/></svg>