<svg width="33" height="32" viewBox="0 0 33 32" xmlns="http://www.w3.org/2000/svg"><path d="M16.498 0C7.388 0 0 7.345 0 16.405c0 7.248 4.727 13.397 11.284 15.566.825.151 1.126-.356 1.126-.79 0-.39-.014-1.422-.022-2.79-4.59.99-5.558-2.2-5.558-2.2-.75-1.895-1.832-2.4-1.832-2.4-1.498-1.017.113-.997.113-.997 1.656.116 2.527 1.691 2.527 1.691 1.472 2.507 3.863 1.783 4.803 1.363.15-1.06.576-1.783 1.047-2.193-3.664-.413-7.516-1.821-7.516-8.108 0-1.79.643-3.256 1.699-4.402-.17-.415-.737-2.083.162-4.341 0 0 1.385-.441 4.537 1.682a15.89 15.89 0 0 1 4.13-.553c1.402.007 2.813.188 4.131.553 3.15-2.123 4.533-1.682 4.533-1.682.9 2.258.334 3.926.165 4.341 1.058 1.146 1.696 2.612 1.696 4.402 0 6.303-3.858 7.69-7.533 8.095.591.507 1.119 1.508 1.119 3.038 0 2.193-.02 3.963-.02 4.5 0 .44.297.95 1.134.79C28.277 29.796 33 23.65 33 16.405 33 7.345 25.612 0 16.498 0" fill="#FFFFFE" fill-rule="evenodd"/></svg>