<svg width="30" height="30" viewBox="0 0 30 30" xmlns="http://www.w3.org/2000/svg" xmlns:xlink="http://www.w3.org/1999/xlink"><defs><path d="M15 23.45l7.275 4.296c1.332.788 2.962-.377 2.612-1.849l-1.929-8.08 6.434-5.444c1.174-.993.543-2.876-1-2.996l-8.466-.702-3.313-7.635c-.596-1.387-2.63-1.387-3.226 0l-3.313 7.618-8.467.702c-1.542.12-2.173 2.003-.999 2.996L7.042 17.8l-1.929 8.08c-.35 1.472 1.28 2.636 2.612 1.849L15 23.449z" id="hallofbest-a"/></defs><g transform="translate(0 1)" fill="none" fill-rule="evenodd"><mask id="hallofbest-b" fill="#fff"><use xlink:href="#hallofbest-a"/></mask><use fill="#313E4D" fill-rule="nonzero" xlink:href="#hallofbest-a"/><path fill="#313E4D" mask="url(#hallofbest-b)" d="M0-1h30v30H0z"/></g></svg>
