<svg width="30" height="30" viewBox="0 0 30 30" xmlns="http://www.w3.org/2000/svg" xmlns:xlink="http://www.w3.org/1999/xlink"><defs><path d="M15 15c0-4.137 3.447-7.584 7.584-7.584 3.544 0 6.578 2.523 7.377 5.847.207.882-.44 1.737-1.337 1.737H15zm0 0c0 4.137-3.447 7.584-7.584 7.584-3.544 0-6.578-2.523-7.377-5.847C-.168 15.855.479 15 1.376 15H15zm0 0c-4.137 0-7.584-3.447-7.584-7.584 0-3.544 2.523-6.578 5.847-7.377C14.145-.168 15 .479 15 1.376V15zm0 0c4.137 0 7.584 3.447 7.584 7.584 0 3.544-2.523 6.578-5.847 7.377-.882.207-1.737-.44-1.737-1.337V15z" id="a"/></defs><g fill="none" fill-rule="evenodd"><mask id="b" fill="#fff"><use xlink:href="#a"/></mask><use fill="#0C1C2D" fill-rule="nonzero" xlink:href="#a"/><path fill="#313E4D" mask="url(#b)" d="M0 0h30v30H0z"/></g></svg>