<svg width="30" height="24" viewBox="0 0 30 24" xmlns="http://www.w3.org/2000/svg" xmlns:xlink="http://www.w3.org/1999/xlink"><defs><path d="M27 3H15L12.885.885A3.01 3.01 0 0 0 10.755 0H3A2.996 2.996 0 0 0 .015 3L0 21c0 1.65 1.35 3 3 3h24c1.65 0 3-1.35 3-3V6c0-1.65-1.35-3-3-3zm-7.5 4.5c1.65 0 3 1.35 3 3s-1.35 3-3 3-3-1.35-3-3 1.35-3 3-3zm6 12h-12V18c0-1.995 4.005-3 6-3s6 1.005 6 3v1.5z" id="myprojects-a"/></defs><g fill="none" fill-rule="evenodd"><mask id="myprojects-b" fill="#fff"><use xlink:href="#myprojects-a"/></mask><use fill="#0C1C2D" fill-rule="nonzero" xlink:href="#myprojects-a"/><path fill="#63AEFF" mask="url(#myprojects-b)" d="M0-3h30v30H0z"/></g></svg>
