<svg width="570" height="570" xmlns="http://www.w3.org/2000/svg" viewBox="0 0 570 570"><g fill="none" fill-rule="evenodd"><path d="M196.97 544.854c201.318 0 373.03-147.991 373.03-259.199C570 174.448 416.67.5 226.679.5 36.689.5.007 91.287.007 202.494c0 111.208-4.356 342.36 196.963 342.36z" fill="#72B6FF"/><path fill="#CCE3FF" d="M160.023 391.752L117.76 561.537h9.872l42.264-169.785z"/><path d="M209.902 475.847l23.38-82.371M191.607 393.476l60.92 82.142" stroke="#CCE3FF" stroke-width="7"/><path d="M191.607 393.476L104.244 474.7" fill="#FFF"/><path d="M191.607 393.476L104.244 474.7" stroke="#ADD5FF" stroke-width="7"/><path fill="#CCE3FF" d="M228.13 391.65l41.655 169.886h9.732L237.862 391.65z"/><path d="M123.36 393.476L209.9 474.7" stroke="#ADD5FF" stroke-width="7"/><path fill="#E4F1FF" d="M118.331 391.752L76.07 561.537h9.873l42.264-169.785zM186.508 391.752l42.263 169.785h9.874l-42.263-169.785z"/><path d="M285.785 372.83v1.3c0 10.848-8.81 19.635-19.668 19.635H112.06c-23.764 0-42.05-21.78-38.772-46.184l17.393-135.978c1.506-11.262 10.788-19.642 21.755-19.642h45.66c10.96 0 20.24 8.38 21.754 19.642l17.393 135.978c.134.971.228 1.941.283 2.905l.094-.016s3.216 22.36 33.122 22.36h55.043z" fill="#E4F1FF"/><g><path d="M237.839 135.757c.921 22.15 12.659 35.424 13.755 56.096 1.41 26.589-13.863 23.779-12.705 45.598.6 11.307-100.305 38.604-128.742 3.048-18.248-22.816-.149-25.66-1.79-56.616-1.625-30.642 20.472-35.242 19.616-51.397-1.14-21.497 16.16-50.141 44.401-51.64 34.399-1.823 64.072 21.433 65.465 54.911z" fill="#0C1C2D"/><path d="M186.416 187.765s-10.114.836-14.558-1.29l14.373 7.981.185-6.69z" fill="#CF3E83"/><path d="M163.247 168.88c3.452 4.904 2.503 11.658.897 15.66-.541 1.374-3.926 12.839-4.48 13.379-2.152 2.096 26.122 12.658 26.122 12.658l.63-22.812c8.036.038 17.416-.883 22.398-4.585 14.84-11.028 13.869-46.492 13.523-48.25l-13.667-13.725s-19.932-7.939-22.69-3.971c-5.045 7.266-16.06 39.17-25.425 36.09 0 0 .642-9.77-7.477-9.328-6.048.328-7.429 5.26-7.276 8.057.515 9.444 12.809 10.217 17.445 16.826" fill="#FFD9B4" fill-rule="nonzero"/><path fill="#17385D" d="M206.617 152.24l6.542 13.725-6.732.221z"/><path d="M200.477 153.176c.004 2.811-1.53 5.082-3.43 5.074-1.898-.009-3.44-2.295-3.445-5.105-.005-2.811 1.53-5.082 3.43-5.074 1.898.009 3.44 2.295 3.445 5.105M218.226 151.787c.005 2.811-1.53 5.082-3.429 5.074-1.899-.009-3.44-2.295-3.446-5.105-.004-2.81 1.531-5.082 3.43-5.074 1.898.01 3.44 2.295 3.445 5.105" fill="#1E66B3"/><path d="M211.135 98.02a28.44 28.44 0 0 1 2.123-2.134 53.445 53.445 0 0 1 4.744 4.592c7.976 8.74 13.075 20.098 13.764 32.72.018.32.034.63.044.95h.008l.559 10.226a20.62 20.62 0 0 1-1.185-.02c-7.767-.347-14.791-3.762-19.746-9.097a28.129 28.129 0 0 1-4.602-6.681c-.19-.363-.36-.743-.528-1.107a27.545 27.545 0 0 1-1.85-6.135c-26.55 37.433-43.91 31.991-43.91 31.991l2.516-19.579-19.347-20.774s55.174-23.798 67.41-14.952z" fill="#19141E"/><path d="M211.135 98.02a28.44 28.44 0 0 1 2.123-2.134 53.445 53.445 0 0 1 4.744 4.592c7.976 8.74 13.075 20.098 13.764 32.72.018.32.034.63.044.95h.008l.559 10.226a20.62 20.62 0 0 1-1.185-.02c-7.767-.347-14.791-3.762-19.746-9.097a28.129 28.129 0 0 1-4.602-6.681c-.19-.363-.36-.743-.528-1.107a27.545 27.545 0 0 1-1.85-6.135c-26.55 37.433-43.91 31.991-43.91 31.991l2.516-19.579-19.347-20.774s55.174-23.798 67.41-14.952z" fill="#0C1C2D"/><path d="M205.133 172.994s-4.307 1.644-8.957-2.998" stroke="#1C295E" stroke-width="3"/><path d="M186.4 187.766s-10.115.835-14.558-1.29l14.373 7.98.184-6.69z" fill="#000" opacity=".397"/><g><path d="M147.438 313.896l-5.42-.08s.007-.085.014-.265c1.867.133 3.673.242 5.406.345" fill="#C83820"/><path d="M257.9 372.541l-17.897 2.24-28.822-45.003-1.052-14.958-43.91-.65-18.742-.274h-.039a443.406 443.406 0 0 1-5.405-.345c-23.607-1.645-56.313-6.227-58.557-18.915-4.072-22.979 26.729-67.573 30.369-72.742.227-.32.344-.493.344-.493 5.162-7.362 10.357-13.087 15.205-16.134 9.43-5.929 18.272-7.23 26.674-7.205l2.25-16.283 34.277 4.722-1.867 13.534c10.066.964 16.914 2.929 23.323 8.803 20.58 18.86 22.093 89.496 22.093 89.496L257.9 372.54z" fill="#63AEFF" fill-rule="nonzero"/><path d="M166.22 314.17v.313s-7.862.016-18.743-.588l18.742.275z" fill="#C83820"/><path d="M209.498 314.638c2.517-31.91 19.938-38.656 7.385-74.443" stroke="#000" stroke-width="3" opacity=".201"/><path d="M239.135 354.115l-65.46-7.532a3.495 3.495 0 0 1-2.967-4.424l25.864-91.224a3.5 3.5 0 0 1 3.769-2.52l65.46 7.532a3.494 3.494 0 0 1 2.966 4.424l-25.863 91.223a3.5 3.5 0 0 1-3.769 2.52" fill="#0C1C2D"/><path d="M181.008 320.024c.124.033.25.067.378.103 4.547 1.24 9.196 1.989 15.661 1.138 4.159-.543 7.734-1.252 7.694-1.915-.115-1.673-2.133-2.048-2.133-2.048l-3.884.187-3.736-.221s17.164-3.241 17.164-3.743c-.053-1.768-2.87-2.484-2.87-2.484s5.902-.938 5.834-1.875c-.16-2.384-2.796-2.564-2.796-2.564s.731-.63.658-1.213c-.29-2.35-4.488-2.739-6.487-3.026 0 0-6.801-.093-8.827-.596-5.327-1.328-8.498-2.514-10.487-3.505l13.292-46.88a3.501 3.501 0 0 1 3.769-2.519l65.459 7.533a3.493 3.493 0 0 1 2.967 4.423L246.8 352.043a3.5 3.5 0 0 1-3.768 2.52l-65.46-7.532a3.496 3.496 0 0 1-2.967-4.424l6.403-22.583z" fill="#FFCA0C" fill-rule="nonzero"/><path d="M257.588 372.58c4.114 4.834 9.124 10.842 9.854 12.273 1.266 2.483 3.608 14.777 3.496 17.206-.111 2.428-7.409 13.344-7.409 13.344-4.527-1.108-1.57-6.745-1.57-6.745s-4.055 3.424-5.741 3.366c-15.88-.54-15.029-8.566-14.653-9.572.843-2.257 5.082.325 5.082.325s-8.149-16.505-6.188-28.054l17.13-2.143zm-48.306-61.54s2.817.717 2.87 2.485c0 .502-17.164 3.743-17.164 3.743l3.736.22 3.884-.186s2.018.375 2.133 2.048c.04.663-3.535 1.372-7.694 1.915-6.465.85-11.114.101-15.661-1.138-.383-.107-.751-.201-1.107-.294-4.682-1.226-6.768-1.454-12.79-4.728-2.67-1.453-6.607-4.332-8.25-5.792l4.34-16.03 5.982-2.041s2.777-1.086 7.466-1.95c2.944-.542 5.818-.327 8.856-.655l-1.726 6.315c-.194.14-.417.614-.585.796.129.107.256.227.403.361 1.24 1.132 3.588 3.14 13.69 5.658 2.025.503 8.826.596 8.826.596 1.999.287 6.198.676 6.487 3.026.073.583-.658 1.213-.658 1.213s2.635.18 2.796 2.564c.068.937-5.834 1.875-5.834 1.875z" fill="#FFD9B4" fill-rule="nonzero"/><path d="M249.89 380.75s2.227 8.402 9.874 11.02c2.674.916 2.007 11.724 8.56 10.432" stroke="#000" stroke-width="3" opacity=".148"/><path d="M207.12 257.362c-.516 1.616-1.616 2.71-2.457 2.443-.842-.267-1.107-1.795-.591-3.411.515-1.618 1.615-2.712 2.457-2.445.842.268 1.106 1.796.59 3.413" fill="#0C1C2D"/><path stroke="#000" stroke-width="3" opacity=".2" d="M141.184 246.523l-16.522 27.311 41.08 16.227"/></g><g><path d="M296.259 526.74l-2.025 17.643s37.672 9.86 51.835 24.523l-70.229.121 2.63-50.533 17.789 8.245zm80.834-82.012l8.09 15.893s37.011-12.566 57-8.114c13.327 2.967-6.032 15.794-58.078 38.48l-26.478-43.331 19.466-2.928z" fill="#FFCA0C" fill-rule="nonzero"/><path d="M277.618 522.935l18.66 7.403-.159 14.648-19.074-.7.573-21.351zm81.795-71.84l19.73-4.113 7.988 12.352-16.358 9.955-11.36-18.194z" fill="#FFD9B4" fill-rule="nonzero"/><path d="M324.478 430.129l-9.658 104.653h-44.733l1.986-151.95-85.384.587c-24.357 0-47.917-20.883-46.228-45.154l2.656-24.71L273.51 275.1c24.139-5.448 32.508 1.75 48.158 29.561l69.097 141.397-37.958 25.323-28.33-41.251z" fill="#142D48" fill-rule="nonzero"/><path d="M284.403 322.553L186.69 383.42l85.384-.588-1.986 151.95h44.733l15.336-166.18c3.784-30.237-15.172-46.048-45.753-46.048" fill="#18181C" opacity=".15"/></g></g><g transform="rotate(20 70.764 1105.967)"><ellipse fill="#FFCA0C" cx="58.473" cy="58.465" rx="57.994" ry="57.91"/><path fill="#FFCA0C" d="M28.947 103.278h59.651v28.128H28.947z"/><path d="M28.883 116.184h59.651v32.5c0 7.18-5.82 13-13 13H41.883c-7.18 0-13-5.82-13-13v-32.5z" fill="#0C1C2D"/><path stroke="#0C1C2D" stroke-width="2" stroke-linecap="round" d="M35.775 115.58L24.158 51.858l16.984 27.179 16.984-27.179L75.11 79.037l16.984-27.179-10.383 64.528"/></g><g stroke="#0C1C2D" stroke-width="2"><path d="M474.952 70.032l39.456-19.558"/><path d="M404.756 48.847l-6.144-40.959M531.89 111.445l-44.367-3.517M441.362 50.383L456.92 9.804" stroke-linecap="round"/></g></g></svg>
