<svg width="86" height="36" xmlns="http://www.w3.org/2000/svg" viewBox="0 0 86 36" ><g fill-rule="nonzero" fill="none"><path d="M18.223 3.287c0 .56-.224 1.069-.673 1.528-.449.46-.99.862-1.623 1.21-.632.347-1.283.632-1.95.856-.667.224-1.22.38-1.657.47a112.524 112.524 0 0 0-.431 5.157 85.447 85.447 0 0 0-.156 5.157c0 .918.023 1.825.07 2.721.045.896.068 1.792.068 2.687 0 .404-.04.846-.12 1.327-.081.482-.22.935-.415 1.361a3.055 3.055 0 0 1-.811 1.075c-.345.291-.771.437-1.277.437-.599 0-1.076-.163-1.433-.487a3.304 3.304 0 0 1-.828-1.193 5.858 5.858 0 0 1-.397-1.495 11.072 11.072 0 0 1-.104-1.428 234.665 234.665 0 0 1-.138-8.13c0-1.142.006-2.261.017-3.359.012-1.097.018-2.217.018-3.36-.323.046-.65.08-.984.102-.334.022-.673.033-1.019.033-.276 0-.638-.028-1.087-.084a6.212 6.212 0 0 1-1.295-.302 3.295 3.295 0 0 1-1.07-.605 1.248 1.248 0 0 1-.448-.99c0-.673.27-1.26.81-1.765.542-.503 1.232-.94 2.072-1.31.84-.37 1.772-.683 2.796-.94a30.377 30.377 0 0 1 3.038-.605 43.31 43.31 0 0 1 2.762-.32c.84-.066 1.49-.1 1.95-.1.437 0 .903.017 1.398.05.495.034.96.13 1.398.286.437.157.8.392 1.088.705.287.314.431.75.431 1.31zm3.538 23.83c-1.17 0-2.19-.302-3.063-.905a7.977 7.977 0 0 1-2.202-2.313 10.896 10.896 0 0 1-1.342-3.135 13.527 13.527 0 0 1-.448-3.402c0-1.185.15-2.408.448-3.671a12.152 12.152 0 0 1 1.376-3.453 8.01 8.01 0 0 1 2.375-2.548c.963-.66 2.11-.989 3.441-.989 1.285 0 2.38.341 3.287 1.023a7.784 7.784 0 0 1 2.185 2.548c.55 1.016.94 2.128 1.17 3.335.23 1.207.31 2.347.241 3.42a18.793 18.793 0 0 1-.568 3.586c-.31 1.207-.763 2.291-1.36 3.252a7.504 7.504 0 0 1-2.27 2.347c-.918.603-2.008.905-3.27.905zM22.38 12c-.34 0-.641.18-.903.538a4.737 4.737 0 0 0-.647 1.31c-.17.516-.3 1.06-.392 1.631a9.691 9.691 0 0 0-.136 1.496c0 .538.051 1.12.153 1.748.103.627.245 1.204.426 1.73.182.527.403.964.665 1.312.26.347.562.52.902.52.364 0 .676-.167.937-.503.261-.337.471-.762.63-1.278a9.183 9.183 0 0 0 .341-1.697c.068-.617.102-1.194.102-1.731 0-.493-.045-1.037-.136-1.63a10.226 10.226 0 0 0-.392-1.664c-.17-.516-.386-.942-.647-1.278-.261-.336-.562-.504-.903-.504zm15.95 24c-.548 0-1.171-.084-1.869-.252a8.982 8.982 0 0 1-1.972-.723 5.622 5.622 0 0 1-1.56-1.142c-.424-.449-.635-.964-.635-1.547 0-.224.057-.448.171-.672.114-.224.269-.42.463-.588.195-.168.406-.302.635-.403.228-.101.469-.152.72-.152.275 0 .543.04.806.118.263.078.532.174.806.286.298.112.59.213.875.302.286.09.589.135.909.135.572 0 1.069-.19 1.492-.572.423-.38.783-.88 1.08-1.495.298-.617.538-1.3.72-2.05.184-.751.327-1.496.43-2.236.103-.74.177-1.434.223-2.084.045-.65.08-1.176.103-1.58-.8 1.188-1.595 2.101-2.384 2.74-.79.639-1.756.958-2.899.958-.869 0-1.63-.18-2.28-.538a5.405 5.405 0 0 1-1.665-1.412 7.964 7.964 0 0 1-1.132-2 12.46 12.46 0 0 1-.668-2.335 19.396 19.396 0 0 1-.292-2.37 16.586 16.586 0 0 1 0-2.134c.023-.493.086-1.137.189-1.933.103-.795.268-1.574.497-2.336.229-.762.549-1.406.96-1.932.412-.527.95-.768 1.613-.723.434.022.789.207 1.063.555.274.347.497.778.669 1.294.171.515.297 1.08.377 1.697.08.616.132 1.227.155 1.832.022.605.028 1.16.017 1.663-.012.505-.017.891-.017 1.16 0 .38.011.762.034 1.143.023.38.103.722.24 1.025.137.302.349.543.635.723.285.179.691.268 1.217.268.595 0 1.07-.145 1.424-.437.354-.29.617-.655.789-1.092.171-.437.28-.907.326-1.412.045-.504.068-.98.068-1.428v-1.143c0-.448.006-.918.017-1.411.012-.493.057-.98.138-1.462.08-.482.205-.92.377-1.311.171-.392.4-.712.686-.958.286-.247.657-.37 1.115-.37.571 0 1.063.219 1.475.655.411.437.76 1.009 1.046 1.715.286.705.514 1.484.686 2.336.171.851.303 1.697.394 2.537a39.094 39.094 0 0 1 .24 3.983c0 .941-.034 2.011-.102 3.21a39.088 39.088 0 0 1-.395 3.697 24.575 24.575 0 0 1-.875 3.73c-.388 1.222-.897 2.314-1.526 3.278a7.68 7.68 0 0 1-2.315 2.32c-.915.582-2.013.873-3.293.873zM55.15 5.802c0 1.21-.052 2.424-.155 3.644a43.566 43.566 0 0 0-.155 3.678c0 1.59.051 3.18.155 4.769.103 1.59.155 3.19.155 4.803 0 .403-.023.856-.07 1.36a4.874 4.874 0 0 1-.326 1.394c-.173.425-.43.783-.775 1.074-.345.292-.804.437-1.378.437-.551 0-1.028-.263-1.43-.79-.401-.525-.734-1.197-.998-2.014a19.751 19.751 0 0 1-.655-2.738 34.871 34.871 0 0 1-.379-2.938 64.508 64.508 0 0 1-.172-2.62 45.075 45.075 0 0 1-.052-1.763c0-.426.018-1.041.052-1.847.035-.806.11-1.68.224-2.62.115-.94.27-1.898.465-2.872s.454-1.858.775-2.653c.321-.795.706-1.444 1.154-1.948.448-.504.981-.755 1.601-.755.506 0 .89.162 1.154.487.264.324.454.716.569 1.175.114.46.183.94.206 1.444.023.504.035.935.035 1.293zm16.944 14.474c0 .76-.246 1.502-.737 2.227a8.33 8.33 0 0 1-1.85 1.943 10.332 10.332 0 0 1-2.38 1.373c-.845.346-1.621.519-2.33.519-1.21 0-2.288-.296-3.236-.888a8.12 8.12 0 0 1-2.38-2.26 10.532 10.532 0 0 1-1.457-3.03 11.23 11.23 0 0 1-.496-3.232c0-1.116.16-2.31.48-3.583.319-1.273.804-2.445 1.455-3.517a9.04 9.04 0 0 1 2.466-2.678c.994-.715 2.175-1.072 3.546-1.072a6.48 6.48 0 0 1 2.226.385c.708.257 1.325.62 1.85 1.088a5.462 5.462 0 0 1 1.267 1.675c.32.647.48 1.373.48 2.176a6.51 6.51 0 0 1-.685 2.947 7.82 7.82 0 0 1-1.816 2.378 9.328 9.328 0 0 1-2.603 1.624 8.695 8.695 0 0 1-3.014.686c.091.648.36 1.117.805 1.407.445.29.976.435 1.592.435.457 0 .902-.111 1.336-.335a12.16 12.16 0 0 0 1.268-.753c.41-.28.816-.53 1.216-.754.4-.223.805-.334 1.216-.334.456 0 .867.145 1.233.435.365.29.548.67.548 1.138zm-4.636-8.29c0-.293-.079-.598-.237-.914-.159-.316-.408-.475-.747-.475-.498 0-.917.13-1.256.39-.34.26-.623.587-.85.983a5.47 5.47 0 0 0-.526 1.27 6.1 6.1 0 0 0-.22 1.254c.317-.068.696-.159 1.137-.272.442-.112.86-.265 1.256-.457a3.546 3.546 0 0 0 1.019-.728c.283-.294.424-.644.424-1.05zM81.52 27.43c-1.62 0-2.879-.208-3.78-.623-.9-.415-1.573-1.005-2.017-1.768-.445-.763-.713-1.683-.804-2.76a43.002 43.002 0 0 1-.137-3.602c0-1.055.034-2.115.103-3.181.068-1.066.17-2.205.308-3.417-.32 0-.57.005-.753.017-.182.01-.33.016-.444.016-.73 0-1.363-.157-1.899-.47-.535-.315-.803-.798-.803-1.448 0-.404.154-.763.461-1.078a4.017 4.017 0 0 1 1.18-.808 8.165 8.165 0 0 1 1.556-.538 10.981 10.981 0 0 1 1.59-.27c0-.628.046-1.324.138-2.087a9.627 9.627 0 0 1 .495-2.137c.24-.662.565-1.218.975-1.667.41-.449.935-.673 1.573-.673.365 0 .69.107.975.32.285.213.519.482.701.808.183.325.32.69.41 1.094.092.404.138.797.138 1.178 0 .449-.035.909-.103 1.38a16.458 16.458 0 0 1-.376 1.75c.387-.044.65-.072.786-.083a4.63 4.63 0 0 1 .377-.017c.387 0 .792.034 1.214.1.421.068.81.18 1.162.338.354.157.645.364.873.622.228.258.342.567.342.926 0 .404-.166.763-.496 1.077-.33.314-.747.584-1.249.808a8.145 8.145 0 0 1-1.607.522 13.17 13.17 0 0 1-1.608.252c-.136.92-.233 1.768-.29 2.542-.057.774-.12 1.554-.188 2.34a36.38 36.38 0 0 0-.12 1.161 13.77 13.77 0 0 0-.051 1.195c0 .292.011.634.034 1.027.023.393.102.769.24 1.128.136.359.353.667.65.925.296.259.706.388 1.23.388.32 0 .65-.028.992-.085a6.328 6.328 0 0 1 1.026-.084c.593 0 1.02.202 1.283.606.262.404.393.92.393 1.549 0 .471-.143.88-.428 1.229a3.193 3.193 0 0 1-1.077.841 6.121 6.121 0 0 1-1.453.488 7.436 7.436 0 0 1-1.522.169z" fill="#FFCA0C"/><path d="M17.743 2.352c0 .56-.224 1.069-.673 1.528-.448.46-.99.862-1.622 1.21-.633.347-1.283.632-1.95.856-.668.224-1.22.38-1.657.47a112.524 112.524 0 0 0-.432 5.157 85.447 85.447 0 0 0-.155 5.157c0 .918.023 1.825.069 2.72.046.897.069 1.793.069 2.688 0 .404-.04.846-.121 1.327-.08.482-.219.935-.414 1.36a3.055 3.055 0 0 1-.812 1.076c-.345.291-.77.437-1.277.437-.598 0-1.076-.163-1.432-.487a3.304 3.304 0 0 1-.829-1.193 5.858 5.858 0 0 1-.397-1.495 11.072 11.072 0 0 1-.103-1.428 234.665 234.665 0 0 1-.139-8.13c0-1.142.006-2.261.018-3.359.011-1.097.017-2.217.017-3.36-.322.046-.65.08-.984.102-.334.022-.673.033-1.018.033-.276 0-.639-.028-1.088-.084a6.212 6.212 0 0 1-1.294-.302 3.295 3.295 0 0 1-1.07-.605A1.248 1.248 0 0 1 0 5.04c0-.673.27-1.26.811-1.765.541-.504 1.231-.94 2.071-1.31.84-.37 1.772-.683 2.797-.94A30.377 30.377 0 0 1 8.716.42 43.31 43.31 0 0 1 11.478.1c.84-.066 1.49-.1 1.95-.1.438 0 .904.017 1.399.05.494.034.96.13 1.398.286.437.157.8.392 1.087.705.288.314.431.75.431 1.31zm3.539 23.83c-1.17 0-2.191-.302-3.063-.905a7.977 7.977 0 0 1-2.203-2.313 10.896 10.896 0 0 1-1.342-3.135 13.527 13.527 0 0 1-.447-3.402c0-1.185.149-2.408.447-3.671a12.152 12.152 0 0 1 1.377-3.453 8.01 8.01 0 0 1 2.374-2.548c.964-.66 2.111-.989 3.442-.989 1.284 0 2.38.341 3.286 1.023a7.784 7.784 0 0 1 2.185 2.547c.551 1.017.941 2.13 1.17 3.336.23 1.207.31 2.347.241 3.42a18.793 18.793 0 0 1-.567 3.586c-.31 1.207-.763 2.291-1.36 3.252a7.504 7.504 0 0 1-2.271 2.347c-.918.603-2.008.905-3.27.905zm.618-15.117c-.341 0-.642.18-.903.538a4.737 4.737 0 0 0-.647 1.31c-.17.516-.301 1.06-.392 1.63a9.691 9.691 0 0 0-.136 1.497c0 .538.05 1.12.153 1.748.102.627.244 1.204.426 1.73.181.527.403.964.664 1.312.261.347.562.52.903.52.363 0 .675-.167.937-.504.26-.336.47-.761.63-1.277a9.183 9.183 0 0 0 .34-1.697c.069-.617.103-1.194.103-1.731 0-.493-.046-1.037-.137-1.63a10.226 10.226 0 0 0-.391-1.665c-.17-.515-.386-.94-.648-1.277-.26-.336-.562-.504-.902-.504zm15.95 24c-.549 0-1.172-.084-1.87-.252a8.982 8.982 0 0 1-1.972-.723 5.622 5.622 0 0 1-1.56-1.143c-.423-.448-.635-.963-.635-1.546 0-.224.057-.448.172-.672.114-.224.268-.42.463-.588.194-.168.406-.303.634-.403.229-.101.469-.152.72-.152.275 0 .544.04.807.118.263.078.531.174.806.286.297.112.589.213.874.302.286.09.59.135.91.135.571 0 1.068-.19 1.492-.572.423-.38.783-.88 1.08-1.495.297-.617.537-1.3.72-2.05.183-.751.326-1.496.43-2.236.102-.74.176-1.434.222-2.084.046-.65.08-1.176.103-1.58-.8 1.188-1.595 2.101-2.384 2.74-.789.638-1.755.958-2.898.958-.87 0-1.63-.18-2.281-.538a5.405 5.405 0 0 1-1.664-1.412 7.964 7.964 0 0 1-1.132-2 12.46 12.46 0 0 1-.669-2.335 19.396 19.396 0 0 1-.292-2.37 16.586 16.586 0 0 1 0-2.134c.023-.493.086-1.137.19-1.933.102-.795.268-1.574.497-2.336.228-.762.548-1.406.96-1.932.412-.527.949-.768 1.612-.723.435.022.79.207 1.063.554.275.348.498.78.67 1.294.17.516.297 1.082.377 1.698.08.616.131 1.227.154 1.832.023.605.029 1.16.017 1.663-.011.505-.017.891-.017 1.16 0 .38.011.762.034 1.143.023.38.103.722.24 1.025.138.302.35.543.635.722.286.18.692.27 1.218.27.594 0 1.069-.146 1.423-.438.355-.29.618-.655.79-1.092.17-.437.28-.907.325-1.412.046-.504.069-.98.069-1.428v-1.143c0-.448.005-.919.017-1.411.011-.493.057-.98.137-1.463.08-.481.206-.918.377-1.31.172-.393.4-.712.686-.958.286-.247.658-.37 1.115-.37.572 0 1.063.218 1.475.655.412.437.76 1.009 1.046 1.715.286.705.515 1.484.686 2.336.172.851.303 1.697.395 2.537a39.094 39.094 0 0 1 .24 3.983c0 .941-.034 2.011-.103 3.21a39.088 39.088 0 0 1-.394 3.697 24.575 24.575 0 0 1-.875 3.73c-.389 1.222-.898 2.314-1.527 3.278a7.68 7.68 0 0 1-2.315 2.32c-.915.582-2.012.873-3.293.873zM54.67 4.867c0 1.21-.053 2.424-.156 3.644a43.566 43.566 0 0 0-.155 3.678c0 1.59.052 3.18.155 4.769.103 1.59.155 3.19.155 4.803 0 .403-.023.856-.069 1.36a4.874 4.874 0 0 1-.327 1.394c-.172.425-.43.783-.775 1.074-.344.291-.804.437-1.378.437-.55 0-1.027-.263-1.429-.79-.402-.525-.735-1.197-.999-2.014a19.751 19.751 0 0 1-.654-2.738 34.871 34.871 0 0 1-.38-2.938 64.508 64.508 0 0 1-.171-2.62 45.075 45.075 0 0 1-.052-1.763c0-.426.017-1.041.052-1.847.034-.806.109-1.68.223-2.62.115-.94.27-1.898.465-2.872.196-.974.454-1.858.775-2.653.322-.795.707-1.444 1.154-1.948.448-.504.982-.755 1.602-.755.505 0 .89.162 1.154.487.264.324.453.716.568 1.175.115.459.184.94.207 1.444.023.504.034.935.034 1.293zm16.943 14.474c0 .76-.245 1.502-.736 2.227a8.33 8.33 0 0 1-1.85 1.943 10.332 10.332 0 0 1-2.38 1.373c-.845.346-1.622.519-2.33.519-1.21 0-2.289-.296-3.237-.888a8.12 8.12 0 0 1-2.38-2.26 10.532 10.532 0 0 1-1.456-3.03 11.23 11.23 0 0 1-.497-3.232c0-1.117.16-2.31.48-3.583.32-1.273.805-2.445 1.456-3.517a9.04 9.04 0 0 1 2.466-2.679c.993-.714 2.175-1.071 3.545-1.071a6.48 6.48 0 0 1 2.227.385c.708.257 1.324.62 1.85 1.088a5.462 5.462 0 0 1 1.267 1.675c.32.647.48 1.373.48 2.176a6.51 6.51 0 0 1-.686 2.947 7.82 7.82 0 0 1-1.815 2.378 9.328 9.328 0 0 1-2.604 1.624 8.695 8.695 0 0 1-3.014.686c.091.648.36 1.117.805 1.407.445.29.976.435 1.593.435.457 0 .902-.111 1.336-.335a12.16 12.16 0 0 0 1.267-.753c.411-.28.817-.53 1.216-.754.4-.223.805-.334 1.216-.334.457 0 .868.145 1.233.435.366.29.548.67.548 1.138zm-4.635-8.29c0-.293-.08-.598-.238-.914-.158-.317-.407-.475-.747-.475-.498 0-.917.13-1.256.39-.34.26-.622.587-.849.982a5.47 5.47 0 0 0-.526 1.27 6.1 6.1 0 0 0-.22 1.254c.316-.067.695-.158 1.137-.27.441-.114.86-.266 1.256-.458a3.546 3.546 0 0 0 1.018-.728c.283-.294.425-.644.425-1.05zM81.04 26.494c-1.619 0-2.878-.208-3.779-.623-.9-.415-1.573-1.005-2.018-1.768-.444-.763-.712-1.683-.804-2.76a43.002 43.002 0 0 1-.136-3.602c0-1.055.034-2.115.102-3.181.069-1.066.171-2.205.308-3.417-.32 0-.57.005-.752.017-.183.01-.331.016-.445.016-.73 0-1.362-.157-1.898-.47-.536-.315-.804-.798-.804-1.448 0-.404.154-.763.462-1.078a4.017 4.017 0 0 1 1.18-.808 8.165 8.165 0 0 1 1.556-.538 10.981 10.981 0 0 1 1.59-.27c0-.628.046-1.324.137-2.087a9.627 9.627 0 0 1 .496-2.137c.24-.662.564-1.218.975-1.667.41-.449.934-.673 1.573-.673.365 0 .69.107.975.32.285.213.518.482.7.808.183.325.32.69.411 1.094.091.404.137.797.137 1.178 0 .449-.034.909-.103 1.38a16.458 16.458 0 0 1-.376 1.75c.388-.044.65-.072.787-.083a4.63 4.63 0 0 1 .376-.017c.388 0 .792.033 1.214.1.422.068.81.18 1.163.337.353.158.644.365.872.623.228.258.342.567.342.926 0 .404-.165.763-.496 1.077-.33.314-.747.584-1.248.808a8.145 8.145 0 0 1-1.608.522 13.17 13.17 0 0 1-1.607.252c-.137.92-.234 1.768-.29 2.542-.058.774-.12 1.554-.189 2.34a36.38 36.38 0 0 0-.12 1.161 13.77 13.77 0 0 0-.05 1.195c0 .292.01.634.033 1.027.023.393.103.769.24 1.128.137.359.353.667.65.925.296.259.706.388 1.23.388.32 0 .65-.028.993-.085a6.328 6.328 0 0 1 1.026-.084c.592 0 1.02.202 1.282.606.262.404.393.92.393 1.549 0 .471-.142.88-.427 1.228a3.193 3.193 0 0 1-1.077.842 6.121 6.121 0 0 1-1.454.488 7.436 7.436 0 0 1-1.522.169z" fill="#63AEFF"/></g></svg>
