<svg width="687" height="674" viewBox="0 0 687 674" xmlns="http://www.w3.org/2000/svg"><g fill="none" fill-rule="evenodd"><path d="M348.786 673.89c163.89 0 337.93-127.475 337.93-291.33C686.715 218.706 666.712.89 455.637.89 244.562.89.905 218.706.905 382.56c0 163.855 183.99 291.33 347.88 291.33z" fill="#72B6FF"/><path d="M201.667 165.824a13.446 13.446 0 0 1 .189 2.311c6.628 7.133 10.126 17.086 8.67 27.428-2.562 18.187-19.512 30.969-37.668 28.403l-31.828-4.498c-18.156-2.566-30.915-19.545-28.353-37.732 1.804-12.814 10.75-22.944 22.229-26.914-3.123-4.71-4.61-10.532-3.764-16.537 1.55-11.01 10.465-19.253 21.04-20.428a21.072 21.072 0 0 1-.697-9.067c1.629-11.563 12.406-19.69 23.949-18.057a20.978 20.978 0 0 1 8.036 2.883c6.678-3.853 14.599-6.084 23.093-6.084 23.844 0 43.174 17.582 43.174 39.271s-19.33 39.27-43.174 39.27c-1.656 0-3.29-.084-4.896-.249z" fill="#FFCA0C" fill-rule="nonzero"/><path d="M213.141 173.828s-7.905.234-11.276-1.61l10.856 6.828.42-5.218z" fill="#CF3E83"/><path d="M193.924 155.875c-4.125-3.61-10.905-5.379-10.914-11.615-.004-2.191 1.275-5.985 5.996-5.992 5.983-.009 5.511 6.772 5.44 7.527l-.007.038.003.001-.003.03a3.21 3.21 0 0 0 2.042.105c4.851.055 17.176-1.418 24.048-16.78a25.803 25.803 0 0 0 4.85 3.994c5.11 3.25 11.41 4.757 17.856 4.007-.397 7.758-2.668 27.452-12.472 33.984-4.03 2.685-11.369 3.016-17.622 2.655l-1.433 17.788s-19.096-8.338-19.884-10.612c5.766-1.464 10.032-6.697 10.032-12.928a13.34 13.34 0 0 0-7.932-12.202z" fill="#FFD9B4" fill-rule="nonzero"/><path fill="#405FD3" d="M230.328 145.85l4.525 10.988-5.25-.106z"/><path d="M225.511 146.326c-.113 2.195-1.401 3.905-2.878 3.82-1.478-.085-2.584-1.933-2.471-4.129.113-2.195 1.401-3.905 2.878-3.82 1.478.085 2.584 1.935 2.471 4.13M239.383 145.976c-.113 2.195-1.402 3.905-2.879 3.82-1.477-.085-2.583-1.934-2.47-4.13.112-2.194 1.4-3.905 2.878-3.82 1.477.085 2.583 1.934 2.47 4.13" fill="#0D0B6D"/><path d="M228.316 161.995s-3.42 1.106-6.848-2.711" stroke="#1C295E" stroke-width="3"/><path d="M213.129 173.828s-7.907.234-11.277-1.61l10.856 6.828.42-5.218z" fill="#000" opacity=".402"/><g><path d="M257.288 320.877c1.31-3.09 8.196-3.958 8.196-3.958s10.989 12.683 11.972 14.62c.983 1.936 2.802 11.524 2.715 13.419-.087 1.894-5.753 10.406-5.753 10.406-3.516-.863-1.22-5.26-1.22-5.26s-3.15 2.67-4.458 2.625c-12.331-.42-11.67-6.68-11.38-7.465.656-1.76 3.947.253 3.947.253s-7.768-15.801-4.02-24.64zm-110.844-3.65l2.44 15.208s.015 3.125-.42 6.715c-.436 3.59-.792 5.753.412 11.567.839 4.05-4.457 1.68-5.542-.725-1.119-2.48.136-11.304-2.95-10.211-3.086 1.093-5.981 9.598-7.356 17.942-.215 1.31-1.422 2.144-2.192 2.358-1.248.346-1.64-5.103-1.64-5.103s-1.009 1.65-2.589.501c-.559-.407-1.584-4.289-1.584-4.289s-1.027-2.033-1.325-4.107c-.527-3.664-.118-10.145.58-11.916 1.688-4.29 4.932-11.532 7.75-15.058 2.79-3.488 7.669.244 14.416-2.881z" fill="#FFD9B4" fill-rule="nonzero"/><path d="M263.825 328.338s1.73 6.554 7.669 8.596c2.076.714 1.557 9.142 6.647 8.135" stroke="#000" stroke-width="3" opacity=".152"/><path d="M190.967 185.858l1.747-12.7 26.617 3.68-1.452 10.553c7.814.757 13.133 2.286 18.11 6.868 15.987 14.715 17.163 69.8 17.163 69.8l16.894 57.875-13.903 1.747s-23.273-30.92-28.415-47.547h-47.672s.45-4.941-.67-12.082c-1.475-9.34-6.77-16.303-6.77-16.303l-9.576 11.814-16.596 58.932-15.25 2.743s-4.574-48.176 4.68-74.485c8.09-23.01 22.852-47.999 34.379-55.28 7.317-4.624 14.191-5.638 20.714-5.615z" fill="#0C1C2D" fill-rule="nonzero"/><path d="M232.459 276.776c1.954-24.887 15.482-30.15 5.735-58.06M184.487 229.711l-11.872 18.035" stroke="#000" stroke-width="3" opacity=".196"/></g><g fill-rule="nonzero"><path d="M180.318 604.784l14.814-.745 1.584 18.755h-35.322c7.732-15.25 18.924-18.01 18.924-18.01zm84.74-.047s27.883 7.33 38.365 18.232l-50.18.09 1.364-18.644 10.45.322z" fill="#FF3C3C"/><path d="M191.173 606.62c-3.031 3.186-8.875 7.8-17.411 7.971-7.77.153 6.432-9.624 8.9-11.285L167.91 438.409l38.765-18.01-12.022 186.86-3.479-.64zm78.745-1.397l19.986 8.699c-12.248 1.345-24.548-3.79-30.892-7.034h-3.96l-36.463-162.305 33.343-1.562s3.496 36.655 7.51 76.703c4.477 44.637 9.329 77.863 10.476 85.499z" fill="#FFD9B4"/><path d="M182.128 271.093s-10.333 4.955-19.324 31.849c-12.034 35.995-15.56 145.022-15.56 145.022h115.871l-29.86-176.09-51.127-.78z" fill="#EFEFEF"/></g><g><path fill="#CCE3FF" d="M104.449 621.913h6.958l42.754-282.142H130.1z"/><path fill="#DCEEFF" d="M394.133 232.913h103.32l-24.243 79.675H369.89z"/><path fill="#FFF" d="M489.949 237.6l-20.586 68.427h-91.969l20.587-68.427z"/><path fill="#B6D4FF" d="M473.066 259.16l-.987 2.811h-75.926l.986-2.812zM468.376 265.72l-.982 2.813h-73.117l.982-2.812zM445.865 272.282l-.981 2.812h-52.482l.98-2.812z"/><path fill="#DCEEFF" d="M294.854 319.15H398.03v-6.562H294.854z"/><path fill="#ECF6FF" d="M398.03 319.15h75.036v-6.562h-75.037zM497.594 232.913h6.424l-24.528 79.675h-6.424z"/><path fill="#E4F1FF" d="M76.31 339.771H466.5V319.15H76.31z"/><path fill="#DCEEFF" d="M438.361 339.771h151.95V319.15H438.36zM571.16 621.913h6.957l-25.652-282.142h-24.06z"/><path fill="#CCE3FF" d="M449.225 621.913h6.958L430.53 339.771h-24.06z"/><path fill="#B6D4FF" d="M476.818 246.036l-.986 2.812h-75.927l.986-2.812zM467.438 252.598l-.983 2.812h-67.488l.985-2.812zM451.493 237.034l-12.75 1.503-1.022-1.561.673-1.425-.97-1.134 11.91-1.504 1.8 1.047-1.506 1.466z"/></g><g><path d="M464.068 115.08c0 9.067 5.803 16.416 12.96 16.416 7.157 0 12.96-7.35 12.96-16.416s-5.803-16.416-12.96-16.416c-7.157 0-12.96 7.35-12.96 16.416" fill="#19141E"/><path d="M494.736 180.113l.543-18.855s-22.754 1.824-27.621-.722c0 0-5.95-30.864 1.146-47.955l.144-.666 48.016-5.655 2.692 27.745c1.617-4.804 14.966-10.251 18.455-3.372 7.562 14.907-19.476 24.944-19.476 24.944l2.746 24.762" fill="#FFD2A6" fill-rule="nonzero"/><path fill="#000" opacity=".399" d="M495.278 161.258l15.344-3.313-15.27 10.387z"/><path fill="#405FD3" d="M483.014 133.653l-5.302 13.052 6.354.082z"/><path d="M488.667 134.155c-.315 1.758.844 3.44 2.59 3.758a3.213 3.213 0 0 0 3.731-2.607c.316-1.757-.843-3.44-2.588-3.758a3.214 3.214 0 0 0-3.733 2.607M470.851 134.155c-.316 1.758.844 3.44 2.589 3.758a3.213 3.213 0 0 0 3.732-2.607c.316-1.757-.843-3.44-2.589-3.758a3.214 3.214 0 0 0-3.732 2.607" fill="#0D0B6D"/><path d="M516.09 138.74c4.553-7.845 11.14-10.238 14.096-10.94 1.18-3.432 2.078-7.412 2.71-11.645 1.694-11.33-6.487-21.667-13.095-24.635-6.688-3.004-18.221-7.166-35.103-1.516-11.349 3.802-18.603-5.3-25.282-1.412-11.412 6.644-.797 35.73 28.14 28.341 20.7-5.285 21.231-3.96 21.409-.117.574 12.42 2.497 19.725 7.125 21.925z" fill="#0C1C2D" fill-rule="nonzero"/><path d="M491.84 147.272s-2.04 3.732-6.449 3.644" fill="#FFF"/><path d="M491.84 147.272s-2.04 3.732-6.449 3.644M484.553 134.311c0 4.087 3.29 7.399 7.349 7.399 4.058 0 7.348-3.312 7.348-7.399 0-4.086-3.29-7.399-7.348-7.399-4.059 0-7.349 3.313-7.349 7.4zM466.05 134.311c0 4.087 3.291 7.399 7.349 7.399s7.348-3.312 7.348-7.399c0-4.086-3.29-7.399-7.348-7.399s-7.348 3.313-7.348 7.4zM481.346 134.654h3.177M499.25 134.311h18.152" stroke="#252535" stroke-width="4"/><g><path d="M475.288 588.904l.178 15.455s-34.603 5.457-46.333 18.689h68.94l-2.887-44.181-19.898 10.037zm88.309-1.302l.18 17.36s-14.575 1.904-20.508 18.086h47.185l-3.445-19.047-10.44-5.821-12.972-10.578z" fill="#3686DD" fill-rule="nonzero"/><path d="M495.186 582.916l-19.899 5.988.18 15.454 21.323-.96-1.604-20.482zm88.31-1.302l-19.9 5.988.18 17.359 23.233-.96-3.514-22.387z" fill="#FFD2A6" fill-rule="nonzero"/><path d="M472.436 583.836l.459 14.344h26.247l-.46-14.387c2.94-1.18 5.041-4.022 5.113-7.378l4.225-214.842 45.651 216.901a8.394 8.394 0 0 0 5.773 6.294l1.716 13.412h27.521l-2.368-14.808c2.291-1.778 3.62-4.704 3.162-7.83l-42.029-287.475h-37.98l.002-.11h-46.002l2.757 288.056c.038 3.788 2.67 6.957 6.213 7.823z" fill="#313E4D"/><path fill="#000" opacity=".198" d="M508.253 364.977L500.2 329.22l6.06 108.408z"/><path d="M537.62 288.338l-4.409.72 48.075 292.958 4.421-.74z" fill="#EFEFEF" fill-rule="nonzero"/></g><g><path d="M456.183 279.688l-.81 5.17c-1.252 8.005 5.497 15.171 14.287 15.171h81.958c8.954 0 15.747-7.422 14.223-15.539l-.98-5.215c12.535-4.44 28.588-13.783 29.997-32.69 1.742-23.39-19.467-44.659-33.972-56.345-3.153-3.532-6.994-6.643-11.663-8.82-17.803-8.307-52.962-2.607-52.962-2.607-13.016 3.931-21.769 6.015-27.667 12.368-14.644 10.772-42.185 34.297-42.882 59.304-.451 16.176 17.51 24.972 30.47 29.203z" fill="#FFCA0C" fill-rule="nonzero"/><path d="M467.873 232.717l-2.752-2.508 2.752 2.508 10.541-22.086-10.541 22.086zm0 0l10.541 9.602-10.541-9.602-.112.235.112-.235zm77.169-2.394l7.094-3.524-7.094 3.524-12.532-25.158 12.532 25.158zm0 0l-24.15 11.996 24.15-11.996.634 1.274-.634-1.274z" stroke="#000" stroke-width="5" opacity=".199"/><path d="M499.132 202.429c0 2.17 1.768 3.927 3.949 3.927s3.95-1.758 3.95-3.927c0-2.17-3.95-7.694-3.95-7.694s-3.949 5.525-3.949 7.694" fill="#000" opacity=".203"/><path d="M537.457 280.644s-16.478-.222-16.566-40.562" stroke="#000" stroke-width="5" opacity=".196"/><path d="M465.12 278.76s12.557-.202 12.624-37.039" stroke="#000" stroke-width="5" opacity=".199"/><path d="M502.24 206.356c-2.445 17.53-8.95 34.353-4.748 93.652" stroke="#000" stroke-width="3" opacity=".203"/><path d="M515.082 177.06l-11.632 12.804-7.508-19.709-15.082 12.912 22.868 14.436s23.856-14.98 31.706-19.641l19.033 5.847s-4.228-20.759-31.195-20.705c-12.648.025-15.291 7.007-14.533 14.414.027.26 1.203.04 1.592 0 2.27-.237 2.899-.252 4.609-.35l.142-.008zm-49.953 113.033h72.224l-.631-9.193c-9.932-3.493-15.552-15.43-15.382-40.819a2536782486.075 2536782486.075 0 0 1-42.728.628c-.198 22.212-4.263 32.256-12.852 39.563l-.631 9.821z" fill="#EFEFEF" fill-rule="nonzero"/><path d="M502.24 206.356c-2.638 15.91-8.996 34.206-4.794 93.505" stroke="#000" stroke-width="3" opacity=".201"/></g></g><path fill="#CCE3FF" d="M224.31 622.913h6.998l43.002-282h-24.199z"/><g><g transform="rotate(-23 354.89 -894.371)"><ellipse fill="#FFCA0C" cx="22.031" cy="22.155" rx="21.851" ry="21.944"/><path fill="#FFCA0C" d="M10.907 39.136h22.475v10.659H10.907z"/><path d="M10.883 44.026h22.475v6.005c0 6.206-5.031 11.237-11.238 11.237-6.206 0-11.237-5.03-11.237-11.237v-6.005z" fill="#0C1C2D"/><path stroke="#0C1C2D" stroke-width="1.5" stroke-linecap="round" d="M13.48 43.798L9.101 19.65l6.4 10.3 6.399-10.3 6.399 10.3 6.4-10.3-3.913 24.452"/></g><g stroke="#0C1C2D" stroke-width="2"><path d="M403.93 51.942l3.037-16.32"/><path d="M381.574 68.228l-13.797-7.479M429.4 44.25l-11.14 12.54M390.352 57.57l-8.754-13.92" stroke-linecap="round"/></g></g></g></svg>